<svg xmlns="http://www.w3.org/2000/svg" xmlns:xlink="http://www.w3.org/1999/xlink" contentstyletype="text/css" data-diagram-type="DESCRIPTION" height="507px" preserveAspectRatio="none" style="width:4754px;height:507px;background:#FFFFFF;" version="1.1" viewBox="0 0 4754 507" width="4754px" zoomAndPan="magnify"><defs></defs><g><!--cluster ????????-???????--><g class="cluster" data-entity="Интернет-магазин" data-source-line="5" data-uid="ent0005" id="cluster_Интернет-магазин"><rect fill="none" height="372.4" rx="2.5" ry="2.5" style="stroke:#181818;stroke-width:1;" width="4500" x="248.37" y="128.79"></rect><text fill="#000000" font-family="sans-serif" font-size="14" font-weight="bold" lengthAdjust="spacing" textLength="147.3828" x="2424.6786" y="143.7851">Интернет-магазин</text></g><g class="entity" data-entity="UC1" data-source-line="6" data-uid="ent0006" id="entity_UC1"><ellipse cx="642.3681" cy="193.5276" fill="#F1F1F1" rx="70.3881" ry="16.4776" style="stroke:#181818;stroke-width:0.5;"></ellipse><text fill="#000000" font-family="sans-serif" font-size="14" lengthAdjust="spacing" textLength="93.8779" x="592.4291" y="197.2752">Регистрация</text></g><g class="entity" data-entity="UC2" data-source-line="7" data-uid="ent0007" id="entity_UC2"><ellipse cx="2219.3715" cy="193.5323" fill="#F1F1F1" rx="77.9115" ry="17.9823" style="stroke:#181818;stroke-width:0.5;"></ellipse><text fill="#000000" font-family="sans-serif" font-size="14" lengthAdjust="spacing" textLength="113.3945" x="2160.1856" y="197.1449">Вход в систему</text></g><g class="entity" data-entity="UC3" data-source-line="8" data-uid="ent0008" id="entity_UC3"><ellipse cx="867.366" cy="193.5272" fill="#F1F1F1" rx="119.936" ry="26.3872" style="stroke:#181818;stroke-width:0.5;"></ellipse><text fill="#000000" font-family="sans-serif" font-size="14" lengthAdjust="spacing" textLength="207.2178" x="763.7571" y="196.3739">Просмотр каталога товаров</text></g><g class="entity" data-entity="UC4" data-source-line="9" data-uid="ent0009" id="entity_UC4"><ellipse cx="340.3745" cy="326.4589" fill="#F1F1F1" rx="75.7945" ry="17.5589" style="stroke:#181818;stroke-width:0.5;"></ellipse><text fill="#000000" font-family="sans-serif" font-size="14" lengthAdjust="spacing" textLength="108.0488" x="283.3501" y="330.2065">Поиск товаров</text></g><g class="entity" data-entity="UC5" data-source-line="10" data-uid="ent0010" id="entity_UC5"><ellipse cx="1135.3696" cy="193.5319" fill="#F1F1F1" rx="113.5096" ry="25.1019" style="stroke:#181818;stroke-width:0.5;"></ellipse><text fill="#000000" font-family="sans-serif" font-size="14" lengthAdjust="spacing" textLength="193.4502" x="1038.6445" y="196.3786">Просмотр деталей товара</text></g><g class="entity" data-entity="UC6" data-source-line="11" data-uid="ent0011" id="entity_UC6"><ellipse cx="467.3742" cy="457.4188" fill="#F1F1F1" rx="126.8442" ry="27.7688" style="stroke:#181818;stroke-width:0.5;"></ellipse><text fill="#000000" font-family="sans-serif" font-size="14" lengthAdjust="spacing" textLength="221.9014" x="356.4235" y="460.2655">Добавление товара в корзину</text></g><g class="entity" data-entity="UC7" data-source-line="12" data-uid="ent0012" id="entity_UC7"><ellipse cx="1407.3698" cy="193.528" fill="#F1F1F1" rx="123.4898" ry="27.098" style="stroke:#181818;stroke-width:0.5;"></ellipse><text fill="#000000" font-family="sans-serif" font-size="14" lengthAdjust="spacing" textLength="214.7852" x="1299.9773" y="196.3746">Удаление товара из корзины</text></g><g class="entity" data-entity="UC8" data-source-line="13" data-uid="ent0013" id="entity_UC8"><ellipse cx="544.3659" cy="326.4612" fill="#F1F1F1" rx="93.2059" ry="21.0412" style="stroke:#181818;stroke-width:0.5;"></ellipse><text fill="#000000" font-family="sans-serif" font-size="14" lengthAdjust="spacing" textLength="148.9619" x="469.885" y="329.3079">Оформление заказа</text></g><g class="entity" data-entity="UC9" data-source-line="14" data-uid="ent0014" id="entity_UC9"><ellipse cx="1681.3679" cy="193.5276" fill="#F1F1F1" rx="115.9379" ry="25.5876" style="stroke:#181818;stroke-width:0.5;"></ellipse><text fill="#000000" font-family="sans-serif" font-size="14" lengthAdjust="spacing" textLength="198.666" x="1582.0349" y="196.3743">Просмотр истории заказов</text></g><g class="entity" data-entity="UC10" data-source-line="15" data-uid="ent0015" id="entity_UC10"><ellipse cx="400.3738" cy="193.5348" fill="#F1F1F1" rx="136.2738" ry="29.6548" style="stroke:#181818;stroke-width:0.5;"></ellipse><text fill="#000000" font-family="sans-serif" font-size="14" lengthAdjust="spacing" textLength="241.7871" x="279.4802" y="196.3814">Редактирование личных данных</text></g><g class="entity" data-entity="UC11" data-source-line="16" data-uid="ent0016" id="entity_UC11"><ellipse cx="2423.3711" cy="193.5262" fill="#F1F1F1" rx="91.3811" ry="20.6762" style="stroke:#181818;stroke-width:0.5;"></ellipse><text fill="#000000" font-family="sans-serif" font-size="14" lengthAdjust="spacing" textLength="144.8604" x="2350.9409" y="196.3729">Добавление товара</text></g><g class="entity" data-entity="UC12" data-source-line="17" data-uid="ent0017" id="entity_UC12"><ellipse cx="2656.3719" cy="193.5304" fill="#F1F1F1" rx="106.2019" ry="23.6404" style="stroke:#181818;stroke-width:0.5;"></ellipse><text fill="#000000" font-family="sans-serif" font-size="14" lengthAdjust="spacing" textLength="177.6387" x="2567.5526" y="196.3771">Редактирование товара</text></g><g class="entity" data-entity="UC13" data-source-line="18" data-uid="ent0018" id="entity_UC13"><ellipse cx="2881.3701" cy="193.526" fill="#F1F1F1" rx="83.4301" ry="19.086" style="stroke:#181818;stroke-width:0.5;"></ellipse><text fill="#000000" font-family="sans-serif" font-size="14" lengthAdjust="spacing" textLength="126.6836" x="2817.5798" y="196.5253">Удаление товара</text></g><g class="entity" data-entity="UC14" data-source-line="19" data-uid="ent0019" id="entity_UC14"><ellipse cx="3086.3719" cy="193.5264" fill="#F1F1F1" rx="86.4319" ry="19.6864" style="stroke:#181818;stroke-width:0.5;"></ellipse><text fill="#000000" font-family="sans-serif" font-size="14" lengthAdjust="spacing" textLength="133.6152" x="3019.5642" y="196.3731">Просмотр заказов</text></g><g class="entity" data-entity="UC15" data-source-line="20" data-uid="ent0020" id="entity_UC15"><ellipse cx="2048.3718" cy="326.4564" fill="#F1F1F1" rx="118.9818" ry="26.1964" style="stroke:#181818;stroke-width:0.5;"></ellipse><text fill="#000000" font-family="sans-serif" font-size="14" lengthAdjust="spacing" textLength="205.1807" x="1945.7815" y="329.303">Обновление статуса заказа</text></g><g class="entity" data-entity="UC16" data-source-line="21" data-uid="ent0021" id="entity_UC16"><ellipse cx="1969.3676" cy="193.5335" fill="#F1F1F1" rx="136.6676" ry="29.7335" style="stroke:#181818;stroke-width:0.5;"></ellipse><text fill="#000000" font-family="sans-serif" font-size="14" lengthAdjust="spacing" textLength="242.6143" x="1848.0605" y="196.3802">Просмотр списка пользователей</text></g><g class="entity" data-entity="UC17" data-source-line="22" data-uid="ent0022" id="entity_UC17"><ellipse cx="3772.3748" cy="193.535" fill="#F1F1F1" rx="114.5748" ry="25.315" style="stroke:#181818;stroke-width:0.5;"></ellipse><text fill="#000000" font-family="sans-serif" font-size="14" lengthAdjust="spacing" textLength="195.7402" x="3674.5046" y="196.3816">Добавление пользователя</text></g><g class="entity" data-entity="UC18" data-source-line="23" data-uid="ent0023" id="entity_UC18"><ellipse cx="4052.3733" cy="193.5347" fill="#F1F1F1" rx="129.9733" ry="28.3947" style="stroke:#181818;stroke-width:0.5;"></ellipse><text fill="#000000" font-family="sans-serif" font-size="14" lengthAdjust="spacing" textLength="228.5186" x="3938.114" y="196.3813">Редактирование пользователя</text></g><g class="entity" data-entity="UC19" data-source-line="24" data-uid="ent0024" id="entity_UC19"><ellipse cx="4323.3674" cy="193.5335" fill="#F1F1F1" rx="106.1674" ry="23.6335" style="stroke:#181818;stroke-width:0.5;"></ellipse><text fill="#000000" font-family="sans-serif" font-size="14" lengthAdjust="spacing" textLength="177.5635" x="4234.5856" y="196.3802">Удаление пользователя</text></g><g class="entity" data-entity="UC20" data-source-line="25" data-uid="ent0025" id="entity_UC20"><ellipse cx="4598.3659" cy="193.5252" fill="#F1F1F1" rx="134.3259" ry="29.2652" style="stroke:#181818;stroke-width:0.5;"></ellipse><text fill="#000000" font-family="sans-serif" font-size="14" lengthAdjust="spacing" textLength="237.6924" x="4479.5197" y="196.3719">Назначение роли пользователю</text></g><g class="entity" data-entity="UC21" data-source-line="26" data-uid="ent0026" id="entity_UC21"><ellipse cx="3306.374" cy="193.5348" fill="#F1F1F1" rx="98.624" ry="22.1248" style="stroke:#181818;stroke-width:0.5;"></ellipse><text fill="#000000" font-family="sans-serif" font-size="14" lengthAdjust="spacing" textLength="161.0205" x="3225.8637" y="196.3815">Управление заказами</text></g><g class="entity" data-entity="UC22" data-source-line="27" data-uid="ent0027" id="entity_UC22"><ellipse cx="3531.3703" cy="193.5261" fill="#F1F1F1" rx="91.8303" ry="20.7661" style="stroke:#181818;stroke-width:0.5;"></ellipse><text fill="#000000" font-family="sans-serif" font-size="14" lengthAdjust="spacing" textLength="145.8721" x="3458.4343" y="196.3727">Настройка системы</text></g><!--entity ??????????--><g class="entity" data-entity="Покупатель" data-source-line="1" data-uid="ent0002" id="entity_Покупатель"><ellipse cx="699.3671" cy="14" fill="#F1F1F1" rx="8" ry="8" style="stroke:#181818;stroke-width:0.5;"></ellipse><path d="M699.3671,22 L699.3671,49 M686.3671,30 L712.3671,30 M699.3671,49 L686.3671,64 M699.3671,49 L712.3671,64" fill="none" style="stroke:#181818;stroke-width:0.5;"></path><text fill="#000000" font-family="sans-serif" font-size="14" lengthAdjust="spacing" textLength="87.5342" x="655.6" y="78.4951">Покупатель</text></g><!--entity ????????--><g class="entity" data-entity="Менеджер" data-source-line="2" data-uid="ent0003" id="entity_Менеджер"><ellipse cx="2423.3655" cy="14" fill="#F1F1F1" rx="8" ry="8" style="stroke:#181818;stroke-width:0.5;"></ellipse><path d="M2423.3655,22 L2423.3655,49 M2410.3655,30 L2436.3655,30 M2423.3655,49 L2410.3655,64 M2423.3655,49 L2436.3655,64" fill="none" style="stroke:#181818;stroke-width:0.5;"></path><text fill="#000000" font-family="sans-serif" font-size="14" lengthAdjust="spacing" textLength="78.251" x="2384.24" y="78.4951">Менеджер</text></g><!--entity ?????????????--><g class="entity" data-entity="Администратор" data-source-line="3" data-uid="ent0004" id="entity_Администратор"><ellipse cx="3772.3674" cy="14" fill="#F1F1F1" rx="8" ry="8" style="stroke:#181818;stroke-width:0.5;"></ellipse><path d="M3772.3674,22 L3772.3674,49 M3759.3674,30 L3785.3674,30 M3772.3674,49 L3759.3674,64 M3772.3674,49 L3785.3674,64" fill="none" style="stroke:#181818;stroke-width:0.5;"></path><text fill="#000000" font-family="sans-serif" font-size="14" lengthAdjust="spacing" textLength="116.0947" x="3714.32" y="78.4951">Администратор</text></g><!--link ?????????? to UC1--><g class="link" data-entity-1="Покупатель" data-entity-2="UC1" data-source-line="29" data-uid="lnk28" id="link_Покупатель_UC1"><path d="M684.98,81.96 C673.18,112.59 659.2084,148.8417 650.5684,171.2517" fill="none" id="Покупатель-to-UC1" style="stroke:#181818;stroke-width:1;"></path><polygon fill="#181818" points="648.41,176.85,655.3798,169.8914,650.2087,172.1847,647.9154,167.0136,648.41,176.85" style="stroke:#181818;stroke-width:1;"></polygon></g><!--link ?????????? to UC2--><g class="link" data-entity-1="Покупатель" data-entity-2="UC2" data-source-line="30" data-uid="lnk29" id="link_Покупатель_UC2"><path d="M743.46,45.48 C969.3,49.98 1990.98,72.83 2123.37,120.79 C2155.25,132.34 2181.1556,154.0797 2198.8956,171.3897" fill="none" id="Покупатель-to-UC2" style="stroke:#181818;stroke-width:1;"></path><polygon fill="#181818" points="2203.19,175.58,2199.542,166.4317,2199.6114,172.0881,2193.9549,172.1575,2203.19,175.58" style="stroke:#181818;stroke-width:1;"></polygon></g><!--link ?????????? to UC3--><g class="link" data-entity-1="Покупатель" data-entity-2="UC3" data-source-line="31" data-uid="lnk30" id="link_Покупатель_UC3"><path d="M741.76,81.96 C772.19,108.74 807.8462,140.1357 834.4762,163.5757" fill="none" id="Покупатель-to-UC3" style="stroke:#181818;stroke-width:1;"></path><polygon fill="#181818" points="838.98,167.54,834.8672,158.591,835.2268,164.2364,829.5814,164.5961,838.98,167.54" style="stroke:#181818;stroke-width:1;"></polygon></g><!--link ?????????? to UC4--><g class="link" data-entity-1="Покупатель" data-entity-2="UC4" data-source-line="32" data-uid="lnk31" id="link_Покупатель_UC4"><path d="M655.37,47.19 C529.31,54.94 173.8,80.25 142.37,120.79 C101.22,173.86 113.82,226.06 164.37,270.26 C194.74,296.82 231.9656,309.428 267.9156,316.588" fill="none" id="Покупатель-to-UC4" style="stroke:#181818;stroke-width:1;"></path><polygon fill="#181818" points="273.8,317.76,265.7547,312.0791,268.8963,316.7834,264.192,319.925,273.8,317.76" style="stroke:#181818;stroke-width:1;"></polygon></g><!--link ?????????? to UC5--><g class="link" data-entity-1="Покупатель" data-entity-2="UC5" data-source-line="33" data-uid="lnk32" id="link_Покупатель_UC5"><path d="M743.39,51.96 C803.67,62.8 914.66,85.71 1004.37,120.79 C1037.81,133.87 1068.278,150.6916 1093.918,166.2216" fill="none" id="Покупатель-to-UC5" style="stroke:#181818;stroke-width:1;"></path><polygon fill="#181818" points="1099.05,169.33,1093.4243,161.246,1094.7733,166.7396,1089.2797,168.0887,1099.05,169.33" style="stroke:#181818;stroke-width:1;"></polygon></g><!--link ?????????? to UC6--><g class="link" data-entity-1="Покупатель" data-entity-2="UC6" data-source-line="34" data-uid="lnk33" id="link_Покупатель_UC6"><path d="M655.12,46.83 C523.71,53.81 142.83,77.64 109.37,120.79 C6,254.1 271.1179,379.7448 399.0779,430.8448" fill="none" id="Покупатель-to-UC6" style="stroke:#181818;stroke-width:1;"></path><polygon fill="#181818" points="404.65,433.07,397.7753,426.0175,400.0066,431.2157,394.8084,433.447,404.65,433.07" style="stroke:#181818;stroke-width:1;"></polygon></g><!--link ?????????? to UC7--><g class="link" data-entity-1="Покупатель" data-entity-2="UC7" data-source-line="35" data-uid="lnk34" id="link_Покупатель_UC7"><path d="M743.48,45.55 C840.32,48.63 1077.9,62.07 1266.37,120.79 C1302.16,131.95 1334.6816,148.5865 1362.0916,164.5065" fill="none" id="Покупатель-to-UC7" style="stroke:#181818;stroke-width:1;"></path><polygon fill="#181818" points="1367.28,167.52,1361.5064,159.5409,1362.9564,165.0088,1357.4885,166.4587,1367.28,167.52" style="stroke:#181818;stroke-width:1;"></polygon></g><!--link ?????????? to UC8--><g class="link" data-entity-1="Покупатель" data-entity-2="UC8" data-source-line="36" data-uid="lnk35" id="link_Покупатель_UC8"><path d="M655.19,47.13 C536.27,54.28 216.24,76.62 185.37,111.79 C138.9,164.72 138.65,217.55 185.37,270.26 C222.19,311.8 378.67,290.77 433.37,300.26 C449.43,303.05 460.8173,305.3287 476.8073,308.9387" fill="none" id="Покупатель-to-UC8" style="stroke:#181818;stroke-width:1;"></path><polygon fill="#181818" points="482.66,310.26,474.7618,304.3762,477.7828,309.1589,473.0001,312.1798,482.66,310.26" style="stroke:#181818;stroke-width:1;"></polygon></g><!--link ?????????? to UC9--><g class="link" data-entity-1="Покупатель" data-entity-2="UC9" data-source-line="37" data-uid="lnk36" id="link_Покупатель_UC9"><path d="M743.6,46.26 C895.54,52.18 1395.22,74.75 1548.37,120.79 C1583.92,131.48 1615.7372,149.05 1641.6172,165.51" fill="none" id="Покупатель-to-UC9" style="stroke:#181818;stroke-width:1;"></path><polygon fill="#181818" points="1646.68,168.73,1641.2325,160.5248,1642.461,166.0467,1636.9392,167.2752,1646.68,168.73" style="stroke:#181818;stroke-width:1;"></polygon></g><!--link ?????????? to UC10--><g class="link" data-entity-1="Покупатель" data-entity-2="UC10" data-source-line="38" data-uid="lnk37" id="link_Покупатель_UC10"><path d="M655.25,66.46 C601.81,92.9 517.1779,134.7496 459.6679,163.1996" fill="none" id="Покупатель-to-UC10" style="stroke:#181818;stroke-width:1;"></path><polygon fill="#181818" points="454.29,165.86,464.1305,165.4546,458.7716,163.643,460.5833,158.2841,454.29,165.86" style="stroke:#181818;stroke-width:1;"></polygon></g><!--link ???????? to UC2--><g class="link" data-entity-1="Менеджер" data-entity-2="UC2" data-source-line="40" data-uid="lnk38" id="link_Менеджер_UC2"><path d="M2383.86,61.21 C2357.48,73.24 2322.75,91 2295.37,111.79 C2270.53,130.65 2250.4599,153.3023 2236.3099,170.8223" fill="none" id="Менеджер-to-UC2" style="stroke:#181818;stroke-width:1;"></path><polygon fill="#181818" points="2232.54,175.49,2241.3067,171.0016,2235.6816,171.6002,2235.083,165.9751,2232.54,175.49" style="stroke:#181818;stroke-width:1;"></polygon></g><!--link ???????? to UC11--><g class="link" data-entity-1="Менеджер" data-entity-2="UC11" data-source-line="41" data-uid="lnk39" id="link_Менеджер_UC11"><path d="M2423.37,81.96 C2423.37,110.71 2423.37,143.34 2423.37,166.51" fill="none" id="Менеджер-to-UC11" style="stroke:#181818;stroke-width:1;"></path><polygon fill="#181818" points="2423.37,172.51,2427.37,163.51,2423.37,167.51,2419.37,163.51,2423.37,172.51" style="stroke:#181818;stroke-width:1;"></polygon></g><!--link ???????? to UC12--><g class="link" data-entity-1="Менеджер" data-entity-2="UC12" data-source-line="42" data-uid="lnk40" id="link_Менеджер_UC12"><path d="M2462.89,69.73 C2507.56,98.08 2574.4742,140.5548 2616.9042,167.4848" fill="none" id="Менеджер-to-UC12" style="stroke:#181818;stroke-width:1;"></path><polygon fill="#181818" points="2621.97,170.7,2616.5148,162.5,2617.7485,168.0206,2612.2278,169.2544,2621.97,170.7" style="stroke:#181818;stroke-width:1;"></polygon></g><!--link ???????? to UC13--><g class="link" data-entity-1="Менеджер" data-entity-2="UC13" data-source-line="43" data-uid="lnk41" id="link_Менеджер_UC13"><path d="M2462.73,47.79 C2530.26,54.32 2671.43,72.94 2780.37,120.79 C2811.28,134.37 2837.7008,154.3812 2857.0408,170.8412" fill="none" id="Менеджер-to-UC13" style="stroke:#181818;stroke-width:1;"></path><polygon fill="#181818" points="2861.61,174.73,2857.3487,165.8507,2857.8023,171.4894,2852.1637,171.943,2861.61,174.73" style="stroke:#181818;stroke-width:1;"></polygon></g><!--link ???????? to UC14--><g class="link" data-entity-1="Менеджер" data-entity-2="UC14" data-source-line="44" data-uid="lnk42" id="link_Менеджер_UC14"><path d="M2462.87,43.84 C2556.49,43.23 2797.88,49.32 2982.37,120.79 C3014.48,133.23 3041.7464,153.5064 3061.5664,170.3364" fill="none" id="Менеджер-to-UC14" style="stroke:#181818;stroke-width:1;"></path><polygon fill="#181818" points="3066.14,174.22,3061.8687,165.3455,3062.3287,170.9837,3056.6906,171.4436,3066.14,174.22" style="stroke:#181818;stroke-width:1;"></polygon></g><!--link ???????? to UC15--><g class="link" data-entity-1="Менеджер" data-entity-2="UC15" data-source-line="45" data-uid="lnk43" id="link_Менеджер_UC15"><path d="M2384.01,45.27 C2092.94,49.97 285.01,80.77 246.37,120.79 C214.73,153.55 216.69,188.72 246.37,223.26 C336.91,328.61 417.07,257.23 555.37,270.26 C1064.74,318.26 1669.53,325.046 1923.04,325.636" fill="none" id="Менеджер-to-UC15" style="stroke:#181818;stroke-width:1;"></path><polygon fill="#181818" points="1929.04,325.65,1920.0493,321.6291,1924.04,325.6384,1920.0307,329.629,1929.04,325.65" style="stroke:#181818;stroke-width:1;"></polygon></g><!--link ???????? to UC16--><g class="link" data-entity-1="Менеджер" data-entity-2="UC16" data-source-line="46" data-uid="lnk44" id="link_Менеджер_UC16"><path d="M2383.98,52.26 C2326.13,63.98 2215.22,88.51 2124.37,120.79 C2089.02,133.35 2056.1388,148.3514 2026.4788,163.0114" fill="none" id="Менеджер-to-UC16" style="stroke:#181818;stroke-width:1;"></path><polygon fill="#181818" points="2021.1,165.67,2030.9407,165.268,2025.5824,163.4545,2027.3959,158.0962,2021.1,165.67" style="stroke:#181818;stroke-width:1;"></polygon></g><!--link ????????????? to UC2--><g class="link" data-entity-1="Администратор" data-entity-2="UC2" data-source-line="48" data-uid="lnk45" id="link_Администратор_UC2"><path d="M3713.84,45.68 C3458.33,50.46 2447.36,72.33 2314.37,120.79 C2282.72,132.33 2257.1269,154.0318 2239.6069,171.3518" fill="none" id="Администратор-to-UC2" style="stroke:#181818;stroke-width:1;"></path><polygon fill="#181818" points="2235.34,175.57,2244.5525,172.0873,2238.8958,172.0548,2238.9282,166.3981,2235.34,175.57" style="stroke:#181818;stroke-width:1;"></polygon></g><!--link ????????????? to UC17--><g class="link" data-entity-1="Администратор" data-entity-2="UC17" data-source-line="49" data-uid="lnk46" id="link_Администратор_UC17"><path d="M3772.37,81.96 C3772.37,108.83 3772.37,138.33 3772.37,161.76" fill="none" id="Администратор-to-UC17" style="stroke:#181818;stroke-width:1;"></path><polygon fill="#181818" points="3772.37,167.76,3776.37,158.76,3772.37,162.76,3768.37,158.76,3772.37,167.76" style="stroke:#181818;stroke-width:1;"></polygon></g><!--link ????????????? to UC18--><g class="link" data-entity-1="Администратор" data-entity-2="UC18" data-source-line="50" data-uid="lnk47" id="link_Администратор_UC18"><path d="M3830.72,75.46 C3882.01,102.55 3950.4641,138.7087 3998.5741,164.1087" fill="none" id="Администратор-to-UC18" style="stroke:#181818;stroke-width:1;"></path><polygon fill="#181818" points="4003.88,166.91,3997.7887,159.1708,3999.4584,164.5756,3994.0536,166.2453,4003.88,166.91" style="stroke:#181818;stroke-width:1;"></polygon></g><!--link ????????????? to UC19--><g class="link" data-entity-1="Администратор" data-entity-2="UC19" data-source-line="51" data-uid="lnk48" id="link_Администратор_UC19"><path d="M3830.66,48.61 C3914.45,55.72 4072.77,74.51 4199.37,120.79 C4233.24,133.17 4263.5331,151.2037 4287.7631,167.4137" fill="none" id="Администратор-to-UC19" style="stroke:#181818;stroke-width:1;"></path><polygon fill="#181818" points="4292.75,170.75,4287.4938,162.421,4288.5942,167.9698,4283.0455,169.0702,4292.75,170.75" style="stroke:#181818;stroke-width:1;"></polygon></g><!--link ????????????? to UC20--><g class="link" data-entity-1="Администратор" data-entity-2="UC20" data-source-line="52" data-uid="lnk49" id="link_Администратор_UC20"><path d="M3830.5,44.79 C3948.92,46.49 4225.66,57.54 4447.37,120.79 C4484.21,131.3 4517.9171,147.2055 4547.0571,162.8955" fill="none" id="Администратор-to-UC20" style="stroke:#181818;stroke-width:1;"></path><polygon fill="#181818" points="4552.34,165.74,4546.312,157.9513,4547.9376,163.3696,4542.5193,164.9952,4552.34,165.74" style="stroke:#181818;stroke-width:1;"></polygon></g><!--link ????????????? to UC21--><g class="link" data-entity-1="Администратор" data-entity-2="UC21" data-source-line="53" data-uid="lnk50" id="link_Администратор_UC21"><path d="M3713.91,51.2 C3642.92,60.54 3520.53,81.13 3422.37,120.79 C3389.88,133.92 3361.0636,152.3642 3338.4236,168.5242" fill="none" id="Администратор-to-UC21" style="stroke:#181818;stroke-width:1;"></path><polygon fill="#181818" points="3333.54,172.01,3343.1892,170.037,3337.6096,169.1052,3338.5415,163.5256,3333.54,172.01" style="stroke:#181818;stroke-width:1;"></polygon></g><!--link ????????????? to UC22--><g class="link" data-entity-1="Администратор" data-entity-2="UC22" data-source-line="54" data-uid="lnk51" id="link_Администратор_UC22"><path d="M3714.1,77.27 C3690.97,90.49 3664.24,106.07 3640.37,120.79 C3612.41,138.04 3586.1244,155.405 3564.2844,170.135" fill="none" id="Администратор-to-UC22" style="stroke:#181818;stroke-width:1;"></path><polygon fill="#181818" points="3559.31,173.49,3569.0082,171.7738,3563.4553,170.6942,3564.5349,165.1413,3559.31,173.49" style="stroke:#181818;stroke-width:1;"></polygon></g><!--link UC2 to UC8--><g class="link" data-entity-1="UC2" data-entity-2="UC8" data-source-line="56" data-uid="lnk52" id="link_UC2_UC8"><path d="M2178.28,209.05 C2161.47,214.41 2141.69,219.97 2123.37,223.26 C1834.57,275.13 934.226,311.3814 642.096,322.0314" fill="none" id="UC2-to-UC8" style="stroke:#181818;stroke-width:1;stroke-dasharray:7.0,7.0;"></path><polygon fill="#181818" points="636.1,322.25,645.2398,325.9195,641.0967,322.0678,644.9483,317.9248,636.1,322.25" style="stroke:#181818;stroke-width:1;"></polygon><text fill="#000000" font-family="sans-serif" font-size="13" lengthAdjust="spacing" textLength="47.0996" x="1863.37" y="266.3269">include</text></g><!--link UC3 to UC4--><g class="link" data-entity-1="UC3" data-entity-2="UC4" data-source-line="57" data-uid="lnk53" id="link_UC3_UC4"><path d="M786.83,213.5 C699.58,234.2 556.35,268.62 433.37,300.26 C418.46,304.09 408.0509,306.8597 393.4109,310.8297" fill="none" id="UC3-to-UC4" style="stroke:#181818;stroke-width:1;stroke-dasharray:7.0,7.0;"></path><polygon fill="#181818" points="387.62,312.4,397.3532,313.9051,392.4457,311.0914,395.2594,306.1839,387.62,312.4" style="stroke:#181818;stroke-width:1;"></polygon><text fill="#000000" font-family="sans-serif" font-size="13" lengthAdjust="spacing" textLength="47.0996" x="612.37" y="266.3269">include</text></g><!--link UC8 to UC6--><g class="link" data-entity-1="UC8" data-entity-2="UC6" data-source-line="58" data-uid="lnk54" id="link_UC8_UC6"><path d="M532.34,347.61 C519.14,369.71 500.9758,400.1284 486.3958,424.5484" fill="none" id="UC8-to-UC6" style="stroke:#181818;stroke-width:1;stroke-dasharray:7.0,7.0;"></path><polygon fill="#181818" points="483.32,429.7,491.3681,424.0231,485.8832,425.407,484.4993,419.922,483.32,429.7" style="stroke:#181818;stroke-width:1;"></polygon><text fill="#000000" font-family="sans-serif" font-size="13" lengthAdjust="spacing" textLength="47.0996" x="511.37" y="395.7169">include</text></g><!--link UC21 to UC15--><g class="link" data-entity-1="UC21" data-entity-2="UC15" data-source-line="59" data-uid="lnk55" id="link_UC21_UC15"><path d="M3245.93,211.36 C3228.15,215.81 3208.58,220.21 3190.37,223.26 C2818.83,285.52 2378.5039,311.3099 2171.0139,320.6599" fill="none" id="UC21-to-UC15" style="stroke:#181818;stroke-width:1;stroke-dasharray:7.0,7.0;"></path><polygon fill="#181818" points="2165.02,320.93,2174.1909,324.5208,2170.0149,320.7049,2173.8308,316.5289,2165.02,320.93" style="stroke:#181818;stroke-width:1;"></polygon><text fill="#000000" font-family="sans-serif" font-size="13" lengthAdjust="spacing" textLength="45.2778" x="2974.37" y="266.3269">extend</text></g><!--SRC=[bLL1Rjf05Dtx5AEisWKHjh4nNMJJC-G05h6gIX6L0f4gLPK89CsYLLjLNNJH9fLw0PT0uW26A_ovKTwCny4sncEGZEtvxxtvy-RFjzyTl3jZT4ihclCnhIda8vhHWdyn_2Jq6wynhYdTqumFq-7l65XIX534B_Y83oLp1O1n5dG7Vk_DQS0Ew1V5GX1XQF1H0voGxd0z2Eu1-s0m_CxxGTVl1-m5_SLCTnd9JtZ-zfBvVNRysYnWV_0hf3rbD67y8k60lUHZXRSA-5iehe1SuX_gZEOovv0Ma45EJ2o09XWSYhjIiOigY64kcfV3Mxf9fy87EUcC7hCQeL9m2We_WVWFmaHIu3VDSZInVYm5rYUcFg_VBGZzmzpXJf687l8odvLCko1pmoybQfcH0YKKTegxedaw8v8D4qeHHLc5ZPcTakeGQvY362MsuqsbiC3GjSYRNp69YfENj7gQU_gQyimzaYZZMtjiGygnTUQLkMKMQ-y6wukbU6OsOJhAdeyX5vPjdEbe9iVZEZa2Gc2D2T0kaapIzY5gEvLpQ_XUhh8v-Urz2a6ZvMdsGySl5kKVwLuCuFN6PP7IGfHrkTZNj4Krjv9PYph8cvFP8z5pKwwvdOZgcojwb9kJQulfUROiGnBBcZvhD8wUEsq5mD81R1sWfGCuEe2h0xHr04y7w6YDQYel2r_9l4tbGTLOTaMhkNPbj5KPTIgZhbhHpWzyVcqwc3gwUfnN4zUfcLwp9iwiYLEd1a_iy51M3tl5tlQwf-SdWOhOAjBQYdWgucv5B5E5J0UnuFqWw9qO7vy0]--></g></svg>