<svg xmlns="http://www.w3.org/2000/svg" xmlns:xlink="http://www.w3.org/1999/xlink" contentstyletype="text/css" data-diagram-type="DESCRIPTION" height="1178px" preserveAspectRatio="none" style="width:3098px;height:1178px;background:#FFFFFF;" version="1.1" viewBox="0 0 3098 1178" width="3098px" zoomAndPan="magnify"><defs></defs><g><!--cluster ????????-???????--><g class="cluster" data-entity="Интернет-магазин" data-source-line="1" data-uid="ent0002" id="cluster_Интернет-магазин"><path d="M8.5,6 L156.8828,6 A3.75,3.75 0 0 1 159.3828,8.5 L166.3828,28.2969 L3088.5,28.2969 A2.5,2.5 0 0 1 3091,30.7969 L3091,1168.98 A2.5,2.5 0 0 1 3088.5,1171.48 L8.5,1171.48 A2.5,2.5 0 0 1 6,1168.98 L6,8.5 A2.5,2.5 0 0 1 8.5,6" fill="none" style="stroke:#000000;stroke-width:1.5;"></path><line style="stroke:#000000;stroke-width:1.5;" x1="6" x2="166.3828" y1="28.2969" y2="28.2969"></line><text fill="#000000" font-family="sans-serif" font-size="14" font-weight="bold" lengthAdjust="spacing" textLength="147.3828" x="10" y="20.9951">Интернет-магазин</text></g><!--cluster ???????? (React)--><g class="cluster" data-entity="Фронтенд (React)" data-source-line="2" data-uid="ent0003" id="cluster_Фронтенд (React)"><path d="M40.5,57 L185.6699,57 A3.75,3.75 0 0 1 188.1699,59.5 L195.1699,79.2969 L1268.5,79.2969 A2.5,2.5 0 0 1 1271,81.7969 L1271,766.39 A2.5,2.5 0 0 1 1268.5,768.89 L40.5,768.89 A2.5,2.5 0 0 1 38,766.39 L38,59.5 A2.5,2.5 0 0 1 40.5,57" fill="none" style="stroke:#000000;stroke-width:1.5;"></path><line style="stroke:#000000;stroke-width:1.5;" x1="38" x2="195.1699" y1="79.2969" y2="79.2969"></line><text fill="#000000" font-family="sans-serif" font-size="14" font-weight="bold" lengthAdjust="spacing" textLength="144.1699" x="42" y="71.9951">Фронтенд (React)</text></g><!--cluster Components--><g class="cluster" data-entity="Components" data-source-line="3" data-uid="ent0004" id="cluster_Components"><path d="M80.5,116 L180.0742,116 A3.75,3.75 0 0 1 182.5742,118.5 L189.5742,138.2969 L516.5,138.2969 A2.5,2.5 0 0 1 519,140.7969 L519,486.09 A2.5,2.5 0 0 1 516.5,488.59 L80.5,488.59 A2.5,2.5 0 0 1 78,486.09 L78,118.5 A2.5,2.5 0 0 1 80.5,116" fill="none" style="stroke:#000000;stroke-width:1.5;"></path><line style="stroke:#000000;stroke-width:1.5;" x1="78" x2="189.5742" y1="138.2969" y2="138.2969"></line><text fill="#000000" font-family="sans-serif" font-size="14" font-weight="bold" lengthAdjust="spacing" textLength="98.5742" x="82" y="130.9951">Components</text></g><!--cluster Services--><g class="cluster" data-entity="Services" data-source-line="10" data-uid="ent0010" id="cluster_Services"><path d="M561.5,356.29 L629.0342,356.29 A3.75,3.75 0 0 1 631.5342,358.79 L638.5342,378.5869 L936.5,378.5869 A2.5,2.5 0 0 1 939,381.0869 L939,726.39 A2.5,2.5 0 0 1 936.5,728.89 L561.5,728.89 A2.5,2.5 0 0 1 559,726.39 L559,358.79 A2.5,2.5 0 0 1 561.5,356.29" fill="none" style="stroke:#000000;stroke-width:1.5;"></path><line style="stroke:#000000;stroke-width:1.5;" x1="559" x2="638.5342" y1="378.5869" y2="378.5869"></line><text fill="#000000" font-family="sans-serif" font-size="14" font-weight="bold" lengthAdjust="spacing" textLength="66.5342" x="563" y="371.2851">Services</text></g><!--cluster State Management--><g class="cluster" data-entity="State Management" data-source-line="15" data-uid="ent0014" id="cluster_State Management"><path d="M981.5,596.59 L1132.8359,596.59 A3.75,3.75 0 0 1 1135.3359,599.09 L1142.3359,618.8869 L1142.5,618.8869 A2.5,2.5 0 0 1 1145,621.3869 L1145,726.39 A2.5,2.5 0 0 1 1142.5,728.89 L981.5,728.89 A2.5,2.5 0 0 1 979,726.39 L979,599.09 A2.5,2.5 0 0 1 981.5,596.59" fill="none" style="stroke:#000000;stroke-width:1.5;"></path><line style="stroke:#000000;stroke-width:1.5;" x1="979" x2="1142.3359" y1="618.8869" y2="618.8869"></line><text fill="#000000" font-family="sans-serif" font-size="14" font-weight="bold" lengthAdjust="spacing" textLength="150.3359" x="983" y="611.5851">State Management</text></g><!--cluster Routing--><g class="cluster" data-entity="Routing" data-source-line="18" data-uid="ent0016" id="cluster_Routing"><path d="M811.5,124 L874.3447,124 A3.75,3.75 0 0 1 876.8447,126.5 L883.8447,146.2969 L970.5,146.2969 A2.5,2.5 0 0 1 973,148.7969 L973,237.79 A2.5,2.5 0 0 1 970.5,240.29 L811.5,240.29 A2.5,2.5 0 0 1 809,237.79 L809,126.5 A2.5,2.5 0 0 1 811.5,124" fill="none" style="stroke:#000000;stroke-width:1.5;"></path><line style="stroke:#000000;stroke-width:1.5;" x1="809" x2="883.8447" y1="146.2969" y2="146.2969"></line><text fill="#000000" font-family="sans-serif" font-size="14" font-weight="bold" lengthAdjust="spacing" textLength="61.8447" x="813" y="138.9951">Routing</text></g><!--cluster ?????? (ASP.NET WebAPI)--><g class="cluster" data-entity="Бэкенд (ASP.NET WebAPI)" data-source-line="23" data-uid="ent0018" id="cluster_Бэкенд (ASP.NET WebAPI)"><path d="M1313.5,297.29 L1524.582,297.29 A3.75,3.75 0 0 1 1527.082,299.79 L1534.082,319.5869 L2352.5,319.5869 A2.5,2.5 0 0 1 2355,322.0869 L2355,1136.98 A2.5,2.5 0 0 1 2352.5,1139.48 L1313.5,1139.48 A2.5,2.5 0 0 1 1311,1136.98 L1311,299.79 A2.5,2.5 0 0 1 1313.5,297.29" fill="none" style="stroke:#000000;stroke-width:1.5;"></path><line style="stroke:#000000;stroke-width:1.5;" x1="1311" x2="1534.082" y1="319.5869" y2="319.5869"></line><text fill="#000000" font-family="sans-serif" font-size="14" font-weight="bold" lengthAdjust="spacing" textLength="210.082" x="1315" y="312.2851">Бэкенд (ASP.NET WebAPI)</text></g><!--cluster Controllers--><g class="cluster" data-entity="Controllers" data-source-line="24" data-uid="ent0019" id="cluster_Controllers"><path d="M1353.5,356.29 L1441.9043,356.29 A3.75,3.75 0 0 1 1444.4043,358.79 L1451.4043,378.5869 L1762.5,378.5869 A2.5,2.5 0 0 1 1765,381.0869 L1765,726.39 A2.5,2.5 0 0 1 1762.5,728.89 L1353.5,728.89 A2.5,2.5 0 0 1 1351,726.39 L1351,358.79 A2.5,2.5 0 0 1 1353.5,356.29" fill="none" style="stroke:#000000;stroke-width:1.5;"></path><line style="stroke:#000000;stroke-width:1.5;" x1="1351" x2="1451.4043" y1="378.5869" y2="378.5869"></line><text fill="#000000" font-family="sans-serif" font-size="14" font-weight="bold" lengthAdjust="spacing" textLength="87.4043" x="1355" y="371.2851">Controllers</text></g><!--cluster Repositories--><g class="cluster" data-entity="Repositories" data-source-line="34" data-uid="ent0023" id="cluster_Repositories"><path d="M1807.5,356.29 L1907.3887,356.29 A3.75,3.75 0 0 1 1909.8887,358.79 L1916.8887,378.5869 L2228.5,378.5869 A2.5,2.5 0 0 1 2231,381.0869 L2231,726.39 A2.5,2.5 0 0 1 2228.5,728.89 L1807.5,728.89 A2.5,2.5 0 0 1 1805,726.39 L1805,358.79 A2.5,2.5 0 0 1 1807.5,356.29" fill="none" style="stroke:#000000;stroke-width:1.5;"></path><line style="stroke:#000000;stroke-width:1.5;" x1="1805" x2="1916.8887" y1="378.5869" y2="378.5869"></line><text fill="#000000" font-family="sans-serif" font-size="14" font-weight="bold" lengthAdjust="spacing" textLength="98.8887" x="1809" y="371.2851">Repositories</text></g><!--cluster Models--><g class="cluster" data-entity="Models" data-source-line="39" data-uid="ent0027" id="cluster_Models"><path d="M1881.5,817.89 L1938.6982,817.89 A3.75,3.75 0 0 1 1941.1982,820.39 L1948.1982,840.1869 L2152.5,840.1869 A2.5,2.5 0 0 1 2155,842.6869 L2155,1096.98 A2.5,2.5 0 0 1 2152.5,1099.48 L1881.5,1099.48 A2.5,2.5 0 0 1 1879,1096.98 L1879,820.39 A2.5,2.5 0 0 1 1881.5,817.89" fill="none" style="stroke:#000000;stroke-width:1.5;"></path><line style="stroke:#000000;stroke-width:1.5;" x1="1879" x2="1948.1982" y1="840.1869" y2="840.1869"></line><text fill="#000000" font-family="sans-serif" font-size="14" font-weight="bold" lengthAdjust="spacing" textLength="56.1982" x="1883" y="832.8851">Models</text></g><!--cluster ???? ?????? (PostgreSQL)--><g class="cluster" data-entity="База данных (PostgreSQL)" data-source-line="47" data-uid="ent0032" id="cluster_База данных (PostgreSQL)"><path d="M2397.5,553.59 L2612.7656,553.59 A3.75,3.75 0 0 1 2615.2656,556.09 L2622.2656,575.8869 L3056.5,575.8869 A2.5,2.5 0 0 1 3059,578.3869 L3059,971.68 A2.5,2.5 0 0 1 3056.5,974.18 L2397.5,974.18 A2.5,2.5 0 0 1 2395,971.68 L2395,556.09 A2.5,2.5 0 0 1 2397.5,553.59" fill="none" style="stroke:#000000;stroke-width:1.5;"></path><line style="stroke:#000000;stroke-width:1.5;" x1="2395" x2="2622.2656" y1="575.8869" y2="575.8869"></line><text fill="#000000" font-family="sans-serif" font-size="14" font-weight="bold" lengthAdjust="spacing" textLength="214.2656" x="2399" y="568.5851">База данных (PostgreSQL)</text></g><!--cluster Tables--><g class="cluster" data-entity="Tables" data-source-line="48" data-uid="ent0033" id="cluster_Tables"><path d="M2429.5,604.59 L2482.1455,604.59 A3.75,3.75 0 0 1 2484.6455,607.09 L2491.6455,626.8869 L2794.5,626.8869 A2.5,2.5 0 0 1 2797,629.3869 L2797,939.68 A2.5,2.5 0 0 1 2794.5,942.18 L2429.5,942.18 A2.5,2.5 0 0 1 2427,939.68 L2427,607.09 A2.5,2.5 0 0 1 2429.5,604.59" fill="none" style="stroke:#000000;stroke-width:1.5;"></path><line style="stroke:#000000;stroke-width:1.5;" x1="2427" x2="2491.6455" y1="626.8869" y2="626.8869"></line><text fill="#000000" font-family="sans-serif" font-size="14" font-weight="bold" lengthAdjust="spacing" textLength="51.6455" x="2431" y="619.5851">Tables</text></g><!--cluster Indexes--><g class="cluster" data-entity="Indexes" data-source-line="55" data-uid="ent0039" id="cluster_Indexes"><path d="M2823.5,604.59 L2886.0508,604.59 A3.75,3.75 0 0 1 2888.5508,607.09 L2895.5508,626.8869 L3016.5,626.8869 A2.5,2.5 0 0 1 3019,629.3869 L3019,718.39 A2.5,2.5 0 0 1 3016.5,720.89 L2823.5,720.89 A2.5,2.5 0 0 1 2821,718.39 L2821,607.09 A2.5,2.5 0 0 1 2823.5,604.59" fill="none" style="stroke:#000000;stroke-width:1.5;"></path><line style="stroke:#000000;stroke-width:1.5;" x1="2821" x2="2895.5508" y1="626.8869" y2="626.8869"></line><text fill="#000000" font-family="sans-serif" font-size="14" font-weight="bold" lengthAdjust="spacing" textLength="61.5508" x="2825" y="619.5851">Indexes</text></g><!--entity ProductList--><g class="entity" data-entity="ProductList" data-source-line="4" data-uid="ent0005" id="entity_ProductList"><rect fill="#F1F1F1" height="46.2969" rx="2.5" ry="2.5" style="stroke:#181818;stroke-width:0.5;" width="118.1826" x="101.91" y="178"></rect><rect fill="#F1F1F1" height="10" style="stroke:#181818;stroke-width:0.5;" width="15" x="200.0926" y="183"></rect><rect fill="#F1F1F1" height="2" style="stroke:#181818;stroke-width:0.5;" width="4" x="198.0926" y="185"></rect><rect fill="#F1F1F1" height="2" style="stroke:#181818;stroke-width:0.5;" width="4" x="198.0926" y="189"></rect><text fill="#000000" font-family="sans-serif" font-size="14" lengthAdjust="spacing" textLength="78.1826" x="116.91" y="210.9951">ProductList</text></g><!--entity Cart--><g class="entity" data-entity="Cart" data-source-line="5" data-uid="ent0006" id="entity_Cart"><rect fill="#F1F1F1" height="46.2969" rx="2.5" ry="2.5" style="stroke:#181818;stroke-width:0.5;" width="69.5996" x="255.2" y="178"></rect><rect fill="#F1F1F1" height="10" style="stroke:#181818;stroke-width:0.5;" width="15" x="304.7996" y="183"></rect><rect fill="#F1F1F1" height="2" style="stroke:#181818;stroke-width:0.5;" width="4" x="302.7996" y="185"></rect><rect fill="#F1F1F1" height="2" style="stroke:#181818;stroke-width:0.5;" width="4" x="302.7996" y="189"></rect><text fill="#000000" font-family="sans-serif" font-size="14" lengthAdjust="spacing" textLength="29.5996" x="270.2" y="210.9951">Cart</text></g><!--entity OrderForm--><g class="entity" data-entity="OrderForm" data-source-line="6" data-uid="ent0007" id="entity_OrderForm"><rect fill="#F1F1F1" height="46.2969" rx="2.5" ry="2.5" style="stroke:#181818;stroke-width:0.5;" width="116.043" x="359.98" y="178"></rect><rect fill="#F1F1F1" height="10" style="stroke:#181818;stroke-width:0.5;" width="15" x="456.023" y="183"></rect><rect fill="#F1F1F1" height="2" style="stroke:#181818;stroke-width:0.5;" width="4" x="454.023" y="185"></rect><rect fill="#F1F1F1" height="2" style="stroke:#181818;stroke-width:0.5;" width="4" x="454.023" y="189"></rect><text fill="#000000" font-family="sans-serif" font-size="14" lengthAdjust="spacing" textLength="76.043" x="374.98" y="210.9951">OrderForm</text></g><!--entity UserProfile--><g class="entity" data-entity="UserProfile" data-source-line="7" data-uid="ent0008" id="entity_UserProfile"><rect fill="#F1F1F1" height="46.2969" rx="2.5" ry="2.5" style="stroke:#181818;stroke-width:0.5;" width="115.9951" x="103" y="418.29"></rect><rect fill="#F1F1F1" height="10" style="stroke:#181818;stroke-width:0.5;" width="15" x="198.9951" y="423.29"></rect><rect fill="#F1F1F1" height="2" style="stroke:#181818;stroke-width:0.5;" width="4" x="196.9951" y="425.29"></rect><rect fill="#F1F1F1" height="2" style="stroke:#181818;stroke-width:0.5;" width="4" x="196.9951" y="429.29"></rect><text fill="#000000" font-family="sans-serif" font-size="14" lengthAdjust="spacing" textLength="75.9951" x="118" y="451.2851">UserProfile</text></g><!--entity AdminPanel--><g class="entity" data-entity="AdminPanel" data-source-line="8" data-uid="ent0009" id="entity_AdminPanel"><rect fill="#F1F1F1" height="46.2969" rx="2.5" ry="2.5" style="stroke:#181818;stroke-width:0.5;" width="123.2617" x="254.37" y="418.29"></rect><rect fill="#F1F1F1" height="10" style="stroke:#181818;stroke-width:0.5;" width="15" x="357.6317" y="423.29"></rect><rect fill="#F1F1F1" height="2" style="stroke:#181818;stroke-width:0.5;" width="4" x="355.6317" y="425.29"></rect><rect fill="#F1F1F1" height="2" style="stroke:#181818;stroke-width:0.5;" width="4" x="355.6317" y="429.29"></rect><text fill="#000000" font-family="sans-serif" font-size="14" lengthAdjust="spacing" textLength="83.2617" x="269.37" y="451.2851">AdminPanel</text></g><!--entity ProductService--><g class="entity" data-entity="ProductService" data-source-line="11" data-uid="ent0011" id="entity_ProductService"><rect fill="#F1F1F1" height="46.2969" rx="2.5" ry="2.5" style="stroke:#181818;stroke-width:0.5;" width="145.4512" x="583.27" y="418.29"></rect><rect fill="#F1F1F1" height="10" style="stroke:#181818;stroke-width:0.5;" width="15" x="708.7212" y="423.29"></rect><rect fill="#F1F1F1" height="2" style="stroke:#181818;stroke-width:0.5;" width="4" x="706.7212" y="425.29"></rect><rect fill="#F1F1F1" height="2" style="stroke:#181818;stroke-width:0.5;" width="4" x="706.7212" y="429.29"></rect><text fill="#000000" font-family="sans-serif" font-size="14" lengthAdjust="spacing" textLength="105.4512" x="598.27" y="451.2851">ProductService</text></g><!--entity OrderService--><g class="entity" data-entity="OrderService" data-source-line="12" data-uid="ent0012" id="entity_OrderService"><rect fill="#F1F1F1" height="46.2969" rx="2.5" ry="2.5" style="stroke:#181818;stroke-width:0.5;" width="131.7725" x="764.11" y="418.29"></rect><rect fill="#F1F1F1" height="10" style="stroke:#181818;stroke-width:0.5;" width="15" x="875.8825" y="423.29"></rect><rect fill="#F1F1F1" height="2" style="stroke:#181818;stroke-width:0.5;" width="4" x="873.8825" y="425.29"></rect><rect fill="#F1F1F1" height="2" style="stroke:#181818;stroke-width:0.5;" width="4" x="873.8825" y="429.29"></rect><text fill="#000000" font-family="sans-serif" font-size="14" lengthAdjust="spacing" textLength="91.7725" x="779.11" y="451.2851">OrderService</text></g><!--entity UserService--><g class="entity" data-entity="UserService" data-source-line="13" data-uid="ent0013" id="entity_UserService"><rect fill="#F1F1F1" height="46.2969" rx="2.5" ry="2.5" style="stroke:#181818;stroke-width:0.5;" width="123.6514" x="594.17" y="658.59"></rect><rect fill="#F1F1F1" height="10" style="stroke:#181818;stroke-width:0.5;" width="15" x="697.8214" y="663.59"></rect><rect fill="#F1F1F1" height="2" style="stroke:#181818;stroke-width:0.5;" width="4" x="695.8214" y="665.59"></rect><rect fill="#F1F1F1" height="2" style="stroke:#181818;stroke-width:0.5;" width="4" x="695.8214" y="669.59"></rect><text fill="#000000" font-family="sans-serif" font-size="14" lengthAdjust="spacing" textLength="83.6514" x="609.17" y="691.5851">UserService</text></g><!--entity Redux--><g class="entity" data-entity="Redux" data-source-line="16" data-uid="ent0015" id="entity_Redux"><rect fill="#F1F1F1" height="46.2969" rx="2.5" ry="2.5" style="stroke:#181818;stroke-width:0.5;" width="84.3857" x="1002.81" y="658.59"></rect><rect fill="#F1F1F1" height="10" style="stroke:#181818;stroke-width:0.5;" width="15" x="1067.1957" y="663.59"></rect><rect fill="#F1F1F1" height="2" style="stroke:#181818;stroke-width:0.5;" width="4" x="1065.1957" y="665.59"></rect><rect fill="#F1F1F1" height="2" style="stroke:#181818;stroke-width:0.5;" width="4" x="1065.1957" y="669.59"></rect><text fill="#000000" font-family="sans-serif" font-size="14" lengthAdjust="spacing" textLength="44.3857" x="1017.81" y="691.5851">Redux</text></g><!--entity React Router--><g class="entity" data-entity="React Router" data-source-line="19" data-uid="ent0017" id="entity_React Router"><rect fill="#F1F1F1" height="46.2969" rx="2.5" ry="2.5" style="stroke:#181818;stroke-width:0.5;" width="131.5811" x="825.21" y="178"></rect><rect fill="#F1F1F1" height="10" style="stroke:#181818;stroke-width:0.5;" width="15" x="936.7911" y="183"></rect><rect fill="#F1F1F1" height="2" style="stroke:#181818;stroke-width:0.5;" width="4" x="934.7911" y="185"></rect><rect fill="#F1F1F1" height="2" style="stroke:#181818;stroke-width:0.5;" width="4" x="934.7911" y="189"></rect><text fill="#000000" font-family="sans-serif" font-size="14" lengthAdjust="spacing" textLength="91.5811" x="840.21" y="210.9951">React Router</text></g><!--entity ProductController--><g class="entity" data-entity="ProductController" data-source-line="25" data-uid="ent0020" id="entity_ProductController"><rect fill="#F1F1F1" height="46.2969" rx="2.5" ry="2.5" style="stroke:#181818;stroke-width:0.5;" width="162.8828" x="1374.56" y="418.29"></rect><rect fill="#F1F1F1" height="10" style="stroke:#181818;stroke-width:0.5;" width="15" x="1517.4428" y="423.29"></rect><rect fill="#F1F1F1" height="2" style="stroke:#181818;stroke-width:0.5;" width="4" x="1515.4428" y="425.29"></rect><rect fill="#F1F1F1" height="2" style="stroke:#181818;stroke-width:0.5;" width="4" x="1515.4428" y="429.29"></rect><text fill="#000000" font-family="sans-serif" font-size="14" lengthAdjust="spacing" textLength="122.8828" x="1389.56" y="451.2851">ProductController</text></g><!--entity OrderController--><g class="entity" data-entity="OrderController" data-source-line="26" data-uid="ent0021" id="entity_OrderController"><rect fill="#F1F1F1" height="46.2969" rx="2.5" ry="2.5" style="stroke:#181818;stroke-width:0.5;" width="149.2041" x="1572.4" y="418.29"></rect><rect fill="#F1F1F1" height="10" style="stroke:#181818;stroke-width:0.5;" width="15" x="1701.6041" y="423.29"></rect><rect fill="#F1F1F1" height="2" style="stroke:#181818;stroke-width:0.5;" width="4" x="1699.6041" y="425.29"></rect><rect fill="#F1F1F1" height="2" style="stroke:#181818;stroke-width:0.5;" width="4" x="1699.6041" y="429.29"></rect><text fill="#000000" font-family="sans-serif" font-size="14" lengthAdjust="spacing" textLength="109.2041" x="1587.4" y="451.2851">OrderController</text></g><!--entity UserController--><g class="entity" data-entity="UserController" data-source-line="27" data-uid="ent0022" id="entity_UserController"><rect fill="#F1F1F1" height="46.2969" rx="2.5" ry="2.5" style="stroke:#181818;stroke-width:0.5;" width="141.083" x="1531.46" y="658.59"></rect><rect fill="#F1F1F1" height="10" style="stroke:#181818;stroke-width:0.5;" width="15" x="1652.543" y="663.59"></rect><rect fill="#F1F1F1" height="2" style="stroke:#181818;stroke-width:0.5;" width="4" x="1650.543" y="665.59"></rect><rect fill="#F1F1F1" height="2" style="stroke:#181818;stroke-width:0.5;" width="4" x="1650.543" y="669.59"></rect><text fill="#000000" font-family="sans-serif" font-size="14" lengthAdjust="spacing" textLength="101.083" x="1546.46" y="691.5851">UserController</text></g><!--entity ProductRepository--><g class="entity" data-entity="ProductRepository" data-source-line="35" data-uid="ent0024" id="entity_ProductRepository"><rect fill="#F1F1F1" height="46.2969" rx="2.5" ry="2.5" style="stroke:#181818;stroke-width:0.5;" width="168.7822" x="1828.61" y="418.29"></rect><rect fill="#F1F1F1" height="10" style="stroke:#181818;stroke-width:0.5;" width="15" x="1977.3922" y="423.29"></rect><rect fill="#F1F1F1" height="2" style="stroke:#181818;stroke-width:0.5;" width="4" x="1975.3922" y="425.29"></rect><rect fill="#F1F1F1" height="2" style="stroke:#181818;stroke-width:0.5;" width="4" x="1975.3922" y="429.29"></rect><text fill="#000000" font-family="sans-serif" font-size="14" lengthAdjust="spacing" textLength="128.7822" x="1843.61" y="451.2851">ProductRepository</text></g><!--entity OrderRepository--><g class="entity" data-entity="OrderRepository" data-source-line="36" data-uid="ent0025" id="entity_OrderRepository"><rect fill="#F1F1F1" height="46.2969" rx="2.5" ry="2.5" style="stroke:#181818;stroke-width:0.5;" width="155.1035" x="2032.45" y="418.29"></rect><rect fill="#F1F1F1" height="10" style="stroke:#181818;stroke-width:0.5;" width="15" x="2167.5535" y="423.29"></rect><rect fill="#F1F1F1" height="2" style="stroke:#181818;stroke-width:0.5;" width="4" x="2165.5535" y="425.29"></rect><rect fill="#F1F1F1" height="2" style="stroke:#181818;stroke-width:0.5;" width="4" x="2165.5535" y="429.29"></rect><text fill="#000000" font-family="sans-serif" font-size="14" lengthAdjust="spacing" textLength="115.1035" x="2047.45" y="451.2851">OrderRepository</text></g><!--entity UserRepository--><g class="entity" data-entity="UserRepository" data-source-line="37" data-uid="ent0026" id="entity_UserRepository"><rect fill="#F1F1F1" height="46.2969" rx="2.5" ry="2.5" style="stroke:#181818;stroke-width:0.5;" width="146.9824" x="1839.51" y="658.59"></rect><rect fill="#F1F1F1" height="10" style="stroke:#181818;stroke-width:0.5;" width="15" x="1966.4924" y="663.59"></rect><rect fill="#F1F1F1" height="2" style="stroke:#181818;stroke-width:0.5;" width="4" x="1964.4924" y="665.59"></rect><rect fill="#F1F1F1" height="2" style="stroke:#181818;stroke-width:0.5;" width="4" x="1964.4924" y="669.59"></rect><text fill="#000000" font-family="sans-serif" font-size="14" lengthAdjust="spacing" textLength="106.9824" x="1854.51" y="691.5851">UserRepository</text></g><!--entity Product--><g class="entity" data-entity="Product" data-source-line="40" data-uid="ent0028" id="entity_Product"><rect fill="#F1F1F1" height="46.2969" rx="2.5" ry="2.5" style="stroke:#181818;stroke-width:0.5;" width="93.71" x="1903.15" y="879.89"></rect><rect fill="#F1F1F1" height="10" style="stroke:#181818;stroke-width:0.5;" width="15" x="1976.86" y="884.89"></rect><rect fill="#F1F1F1" height="2" style="stroke:#181818;stroke-width:0.5;" width="4" x="1974.86" y="886.89"></rect><rect fill="#F1F1F1" height="2" style="stroke:#181818;stroke-width:0.5;" width="4" x="1974.86" y="890.89"></rect><text fill="#000000" font-family="sans-serif" font-size="14" lengthAdjust="spacing" textLength="53.71" x="1918.15" y="912.8851">Product</text></g><!--entity Order--><g class="entity" data-entity="Order" data-source-line="41" data-uid="ent0029" id="entity_Order"><rect fill="#F1F1F1" height="46.2969" rx="2.5" ry="2.5" style="stroke:#181818;stroke-width:0.5;" width="80.0313" x="2031.98" y="879.89"></rect><rect fill="#F1F1F1" height="10" style="stroke:#181818;stroke-width:0.5;" width="15" x="2092.0113" y="884.89"></rect><rect fill="#F1F1F1" height="2" style="stroke:#181818;stroke-width:0.5;" width="4" x="2090.0113" y="886.89"></rect><rect fill="#F1F1F1" height="2" style="stroke:#181818;stroke-width:0.5;" width="4" x="2090.0113" y="890.89"></rect><text fill="#000000" font-family="sans-serif" font-size="14" lengthAdjust="spacing" textLength="40.0313" x="2046.98" y="912.8851">Order</text></g><!--entity User--><g class="entity" data-entity="User" data-source-line="42" data-uid="ent0030" id="entity_User"><rect fill="#F1F1F1" height="46.2969" rx="2.5" ry="2.5" style="stroke:#181818;stroke-width:0.5;" width="71.9102" x="1914.04" y="1029.18"></rect><rect fill="#F1F1F1" height="10" style="stroke:#181818;stroke-width:0.5;" width="15" x="1965.9502" y="1034.18"></rect><rect fill="#F1F1F1" height="2" style="stroke:#181818;stroke-width:0.5;" width="4" x="1963.9502" y="1036.18"></rect><rect fill="#F1F1F1" height="2" style="stroke:#181818;stroke-width:0.5;" width="4" x="1963.9502" y="1040.18"></rect><text fill="#000000" font-family="sans-serif" font-size="14" lengthAdjust="spacing" textLength="31.9102" x="1929.04" y="1062.1751">User</text></g><!--entity Role--><g class="entity" data-entity="Role" data-source-line="43" data-uid="ent0031" id="entity_Role"><rect fill="#F1F1F1" height="46.2969" rx="2.5" ry="2.5" style="stroke:#181818;stroke-width:0.5;" width="70.7959" x="2020.6" y="1029.18"></rect><rect fill="#F1F1F1" height="10" style="stroke:#181818;stroke-width:0.5;" width="15" x="2071.3959" y="1034.18"></rect><rect fill="#F1F1F1" height="2" style="stroke:#181818;stroke-width:0.5;" width="4" x="2069.3959" y="1036.18"></rect><rect fill="#F1F1F1" height="2" style="stroke:#181818;stroke-width:0.5;" width="4" x="2069.3959" y="1040.18"></rect><text fill="#000000" font-family="sans-serif" font-size="14" lengthAdjust="spacing" textLength="30.7959" x="2035.6" y="1062.1751">Role</text></g><!--entity Products--><g class="entity" data-entity="Products" data-source-line="49" data-uid="ent0034" id="entity_Products"><rect fill="#F1F1F1" height="46.2969" rx="2.5" ry="2.5" style="stroke:#181818;stroke-width:0.5;" width="101.0039" x="2443.5" y="658.59"></rect><rect fill="#F1F1F1" height="10" style="stroke:#181818;stroke-width:0.5;" width="15" x="2524.5039" y="663.59"></rect><rect fill="#F1F1F1" height="2" style="stroke:#181818;stroke-width:0.5;" width="4" x="2522.5039" y="665.59"></rect><rect fill="#F1F1F1" height="2" style="stroke:#181818;stroke-width:0.5;" width="4" x="2522.5039" y="669.59"></rect><text fill="#000000" font-family="sans-serif" font-size="14" lengthAdjust="spacing" textLength="61.0039" x="2458.5" y="691.5851">Products</text></g><!--entity Orders--><g class="entity" data-entity="Orders" data-source-line="50" data-uid="ent0035" id="entity_Orders"><rect fill="#F1F1F1" height="46.2969" rx="2.5" ry="2.5" style="stroke:#181818;stroke-width:0.5;" width="87.3252" x="2579.34" y="658.59"></rect><rect fill="#F1F1F1" height="10" style="stroke:#181818;stroke-width:0.5;" width="15" x="2646.6652" y="663.59"></rect><rect fill="#F1F1F1" height="2" style="stroke:#181818;stroke-width:0.5;" width="4" x="2644.6652" y="665.59"></rect><rect fill="#F1F1F1" height="2" style="stroke:#181818;stroke-width:0.5;" width="4" x="2644.6652" y="669.59"></rect><text fill="#000000" font-family="sans-serif" font-size="14" lengthAdjust="spacing" textLength="47.3252" x="2594.34" y="691.5851">Orders</text></g><!--entity Users--><g class="entity" data-entity="Users" data-source-line="51" data-uid="ent0036" id="entity_Users"><rect fill="#F1F1F1" height="46.2969" rx="2.5" ry="2.5" style="stroke:#181818;stroke-width:0.5;" width="79.2041" x="2701.4" y="658.59"></rect><rect fill="#F1F1F1" height="10" style="stroke:#181818;stroke-width:0.5;" width="15" x="2760.6041" y="663.59"></rect><rect fill="#F1F1F1" height="2" style="stroke:#181818;stroke-width:0.5;" width="4" x="2758.6041" y="665.59"></rect><rect fill="#F1F1F1" height="2" style="stroke:#181818;stroke-width:0.5;" width="4" x="2758.6041" y="669.59"></rect><text fill="#000000" font-family="sans-serif" font-size="14" lengthAdjust="spacing" textLength="39.2041" x="2716.4" y="691.5851">Users</text></g><!--entity Roles--><g class="entity" data-entity="Roles" data-source-line="52" data-uid="ent0037" id="entity_Roles"><rect fill="#F1F1F1" height="46.2969" rx="2.5" ry="2.5" style="stroke:#181818;stroke-width:0.5;" width="78.0898" x="2454.96" y="879.89"></rect><rect fill="#F1F1F1" height="10" style="stroke:#181818;stroke-width:0.5;" width="15" x="2513.0498" y="884.89"></rect><rect fill="#F1F1F1" height="2" style="stroke:#181818;stroke-width:0.5;" width="4" x="2511.0498" y="886.89"></rect><rect fill="#F1F1F1" height="2" style="stroke:#181818;stroke-width:0.5;" width="4" x="2511.0498" y="890.89"></rect><text fill="#000000" font-family="sans-serif" font-size="14" lengthAdjust="spacing" textLength="38.0898" x="2469.96" y="912.8851">Roles</text></g><!--entity Categories--><g class="entity" data-entity="Categories" data-source-line="53" data-uid="ent0038" id="entity_Categories"><rect fill="#F1F1F1" height="46.2969" rx="2.5" ry="2.5" style="stroke:#181818;stroke-width:0.5;" width="115.4619" x="2568.27" y="879.89"></rect><rect fill="#F1F1F1" height="10" style="stroke:#181818;stroke-width:0.5;" width="15" x="2663.7319" y="884.89"></rect><rect fill="#F1F1F1" height="2" style="stroke:#181818;stroke-width:0.5;" width="4" x="2661.7319" y="886.89"></rect><rect fill="#F1F1F1" height="2" style="stroke:#181818;stroke-width:0.5;" width="4" x="2661.7319" y="890.89"></rect><text fill="#000000" font-family="sans-serif" font-size="14" lengthAdjust="spacing" textLength="75.4619" x="2583.27" y="912.8851">Categories</text></g><!--entity search_vector_idx--><g class="entity" data-entity="search_vector_idx" data-source-line="56" data-uid="ent0040" id="entity_search_vector_idx"><rect fill="#F1F1F1" height="46.2969" rx="2.5" ry="2.5" style="stroke:#181818;stroke-width:0.5;" width="166.2803" x="2836.86" y="658.59"></rect><rect fill="#F1F1F1" height="10" style="stroke:#181818;stroke-width:0.5;" width="15" x="2983.1403" y="663.59"></rect><rect fill="#F1F1F1" height="2" style="stroke:#181818;stroke-width:0.5;" width="4" x="2981.1403" y="665.59"></rect><rect fill="#F1F1F1" height="2" style="stroke:#181818;stroke-width:0.5;" width="4" x="2981.1403" y="669.59"></rect><text fill="#000000" font-family="sans-serif" font-size="14" lengthAdjust="spacing" textLength="126.2803" x="2851.86" y="691.5851">search_vector_idx</text></g><!--link ???????? (React) to ?????? (ASP.NET WebAPI)--><g class="link" data-entity-1="Фронтенд (React)" data-entity-2="Бэкенд (ASP.NET WebAPI)" data-source-line="61" data-uid="lnk41" id="link_Фронтенд (React)_Бэкенд (ASP.NET WebAPI)"><path d="M1271.6316,202.3945 C1272.0075,202.4056 1272.3953,202.417 1272.7947,202.4288 C1273.5936,202.4525 1274.4392,202.4776 1275.3308,202.5042 C1282.4638,202.717 1292.5402,203.0252 1305.1616,203.43 C1330.4044,204.2398 1365.8276,205.4364 1408.2452,207.0316 C1493.0803,210.2219 1605.8931,215.0063 1721.1963,221.4775 C1951.8025,234.42 2192.37,254.11 2239,281.29 C2243.5438,283.9387 2247.9372,286.864 2252.1816,290.0217 C2254.3038,291.6005 2256.3888,293.2374 2258.4366,294.927 C2258.9486,295.3494 2259.4583,295.7751 2259.9656,296.2039 C2260.2193,296.4184 2255.9132,315.03 2256.1657,315.246" fill="none" id="Фронтенд (React)-to-Бэкенд (ASP.NET WebAPI)" style="stroke:#181818;stroke-width:1;"></path><polygon fill="#181818" points="2260.7248,319.1465,2256.4864,310.2563,2256.9255,315.8961,2251.2858,316.3352,2260.7248,319.1465" style="stroke:#181818;stroke-width:1;"></polygon><text fill="#000000" font-family="sans-serif" font-size="13" lengthAdjust="spacing" textLength="81.6943" x="2214" y="269.3569">API запросы</text></g><!--link ?????? (ASP.NET WebAPI) to ???? ?????? (PostgreSQL)--><g class="link" data-entity-1="Бэкенд (ASP.NET WebAPI)" data-entity-2="База данных (PostgreSQL)" data-source-line="62" data-uid="lnk42" id="link_Бэкенд (ASP.NET WebAPI)_База данных (PostgreSQL)"><path d="M2355.7379,442.3716 C2356.0372,442.3699 2356.3439,442.3683 2356.6578,442.3667 C2357.2855,442.3636 2357.9423,442.3605 2358.6276,442.3576 C2359.9982,442.3518 2361.4829,442.3467 2363.078,442.3426 C2366.2682,442.3345 2369.8999,442.3308 2373.9429,442.335 C2390.1148,442.3518 2412.8678,442.4945 2440.2719,442.9859 C2495.08,443.9688 2568.4925,446.3463 2645.07,451.9 C2798.225,463.0075 2964.04,486.82 3019,537.59 C3021.9463,540.3113 3024.6511,543.2395 3027.1331,546.339 C3028.3741,547.8887 3029.5594,549.4812 3030.6912,551.1121 C3031.2572,551.9275 3028.5509,570.0116 3029.0904,570.8457" fill="none" id="Бэкенд (ASP.NET WebAPI)-to-База данных (PostgreSQL)" style="stroke:#181818;stroke-width:1;"></path><polygon fill="#181818" points="3032.3493,575.8835,3030.8195,566.1542,3029.6336,571.6853,3024.1024,570.4994,3032.3493,575.8835" style="stroke:#181818;stroke-width:1;"></polygon><text fill="#000000" font-family="sans-serif" font-size="13" lengthAdjust="spacing" textLength="86.855" x="3004" y="525.6569">SQL запросы</text></g><!--link Components to Services--><g class="link" data-entity-1="Components" data-entity-2="Services" data-source-line="65" data-uid="lnk43" id="link_Components_Services"><path d="M519.0271,203.7771 C519.3327,203.8384 519.6465,203.9014 519.9685,203.9659 C525.1198,204.9982 532.3515,206.4293 541.2992,208.1542 C559.1947,211.6041 583.9544,216.2294 612.6637,221.1913 C670.0825,231.115 743.3,242.385 809,248.29 C817.61,249.07 1113.97,250.1 1120,256.29 C1160.61,297.955 1114.4125,343.6025 1057.5425,379.0263 C1029.1075,396.7381 998.0044,411.8941 973.75,422.7183 C961.6228,428.1304 951.2078,432.4596 943.6946,435.4838 C942.7555,435.8619 941.8616,436.2195 941.0155,436.5564 C940.5924,436.7248 940.1813,436.888 939.7823,437.0459 C939.5828,437.1249 944.9672,434.9991 944.7738,435.0754" fill="none" id="Components-to-Services" style="stroke:#181818;stroke-width:1;"></path><polygon fill="#181818" points="939.1931,437.2789,949.0332,437.6941,943.8437,435.4426,946.0952,430.2532,939.1931,437.2789" style="stroke:#181818;stroke-width:1;"></polygon><text fill="#000000" font-family="sans-serif" font-size="13" lengthAdjust="spacing" textLength="78.1968" x="1133" y="269.3569">использует</text></g><!--link Services to State Management--><g class="link" data-entity-1="Services" data-entity-2="State Management" data-source-line="66" data-uid="lnk44" id="link_Services_State Management"><path d="M939.0082,444.1857 C939.5174,444.3048 940.0485,444.4304 940.6007,444.5624 C941.7051,444.8264 942.8941,445.1165 944.162,445.4334 C946.6978,446.0671 949.5491,446.8079 952.6705,447.6617 C965.1559,451.0772 981.9619,456.3019 1000.1737,463.7188 C1036.5975,478.5525 1078.645,502.155 1103,537.59 C1111.955,550.6175 1117.7138,565.9025 1121.307,581.5448 C1122.2054,585.4554 1122.9683,589.3883 1123.6121,593.3139 C1123.773,594.2953 1123.0407,589.342 1123.187,590.322" fill="none" id="Services-to-State Management" style="stroke:#181818;stroke-width:1;"></path><polygon fill="#181818" points="1124.0728,596.2562,1126.7003,586.7643,1123.3346,591.311,1118.7879,587.9454,1124.0728,596.2562" style="stroke:#181818;stroke-width:1;"></polygon><text fill="#000000" font-family="sans-serif" font-size="13" lengthAdjust="spacing" textLength="146.4595" x="1098" y="525.6569">обновляет состояние</text></g><!--link Controllers to Services--><g class="link" data-entity-1="Controllers" data-entity-2="Services" data-source-line="69" data-uid="lnk45" id="link_Controllers_Services"><path d="M1765.0024,390.8683 C1765.0507,389.9966 1765.0943,389.1196 1765.1328,388.2378 C1765.2097,386.4742 1765.2664,384.6915 1765.3,382.8938 C1765.8375,354.13 1760.47,321.52 1738,301.9 C1674.56,246.51 1442.18,288.68 1359,301.9 C1263.29,317.11 1159.8825,350.325 1078.69,380.5338 C1038.0938,395.6381 1003.0513,409.9909 977.3016,420.9658 C964.4267,426.4532 953.8751,431.0961 946.114,434.5663 C944.1738,435.4338 942.4079,436.228 940.8238,436.9438 C940.4277,437.1228 940.0431,437.2968 939.6699,437.4659 C939.4832,437.5504 944.7637,435.1553 944.5828,435.2373" fill="none" id="Controllers-to-Services" style="stroke:#181818;stroke-width:1;"></path><polygon fill="#181818" points="939.1187,437.7158,948.9672,437.6408,943.6721,435.6504,945.6626,430.3553,939.1187,437.7158" style="stroke:#181818;stroke-width:1;"></polygon><text fill="#000000" font-family="sans-serif" font-size="13" lengthAdjust="spacing" textLength="66.3013" x="967" y="269.3569">вызывает</text></g><!--link Services to Repositories--><g class="link" data-entity-1="Services" data-entity-2="Repositories" data-source-line="70" data-uid="lnk46" id="link_Services_Repositories"><path d="M939.1187,437.7158 C939.2995,437.6337 939.4832,437.5504 939.6699,437.4659 C940.0431,437.2968 940.4277,437.1228 940.8238,436.9438 C942.4079,436.228 944.1738,435.4338 946.114,434.5663 C953.8751,431.0961 964.4267,426.4532 977.3016,420.9658 C1003.0513,409.9909 1038.0938,395.6381 1078.69,380.5338 C1159.8825,350.325 1263.29,317.11 1359,301.9 C1451.73,287.17 2133.27,240.15 2204,301.9 C2209.6175,306.805 2213.6369,317.295 2216.5008,330.43 C2217.9327,336.9975 2219.0758,344.2263 2219.9854,351.7488 C2220.0991,352.6891 2220.2091,353.634 2220.3156,354.5827 C2220.3689,355.0571 2219.7762,371.8641 2219.8277,372.3404" fill="none" id="Services-to-Repositories" style="stroke:#181818;stroke-width:1;"></path><polygon fill="#181818" points="2220.4727,378.3056,2223.482,368.9277,2219.9352,373.3346,2215.5284,369.7878,2220.4727,378.3056" style="stroke:#181818;stroke-width:1;"></polygon><text fill="#000000" font-family="sans-serif" font-size="13" lengthAdjust="spacing" textLength="78.1968" x="1040" y="269.3569">использует</text></g><!--link Repositories to Models--><g class="link" data-entity-1="Repositories" data-entity-2="Models" data-source-line="71" data-uid="lnk47" id="link_Repositories_Models"><path d="M2215.3764,730.5214 C2215.2777,731.1189 2215.1783,731.7161 2215.0781,732.3131 C2214.8778,733.507 2214.6746,734.6997 2214.4685,735.8912 C2214.0563,738.2741 2213.6325,740.652 2213.1966,743.024 C2212.325,747.7679 2211.4055,752.4882 2210.4359,757.1778 C2208.4968,766.5569 2206.3575,775.8131 2204,784.89 C2196.835,812.47 2182.915,841.28 2170.625,863.4275 C2167.5525,868.9644 2164.5819,874.0848 2161.8441,878.6656 C2160.4753,880.956 2159.1646,883.1114 2157.9286,885.1165 C2157.3106,886.119 2156.7112,887.084 2156.1325,888.0094 C2155.8432,888.4722 2155.559,888.925 2155.2803,889.3677 C2155.2106,889.4784 2158.3418,884.5134 2158.2728,884.6228" fill="none" id="Repositories-to-Models" style="stroke:#181818;stroke-width:1;"></path><polygon fill="#181818" points="2155.0723,889.6979,2163.2565,884.219,2157.7394,885.4687,2156.4897,879.9516,2155.0723,889.6979" style="stroke:#181818;stroke-width:1;"></polygon><text fill="#000000" font-family="sans-serif" font-size="13" lengthAdjust="spacing" textLength="74.5786" x="2228" y="686.3069">работает с</text></g><!--SRC=[pLN1RjD04BtdArQzK0xX0t90YYgGAhLWd28E25MkFGGBnnkjDrKGYaHJa902Yig93-03tD2g4P3q5sR_Y5axgMDxxN34ajVnldapRsQyaxxZldMwm7RmEoxK6A_L1rpGEcxY7upn9zqtECV53dlVO7Jrx-n_aEKovH3ZYktQuBZo_jemPxp7UtqUGYYZJLXVBot1lO4h3_n8lieZUuueRZqL7eZ7NFGA-yyZ4EJejHz00MbxFJ-qd12231YL1NP0dFekLCfRuIOvPaWhAY6cmDAHm0wTaDvwLA2I01kymR3MXSq7qW-x1YRrWsaKHD71g57eveNwYh_MdMnth0TF7Xsn5t3IjlQhMXfAmOC0H6NHCXDJtIfHNJeJ-3-rpOO-Ztp9XLyT_CxcdIb-9Qebc423YaFkGL0PtnJL4AkmPVC0jdyjoLY86LxHZmKDWOdwn7Oj7ickWCwp0_CdS-IS1DNbYanw8uFWoA0uAiqE2TsaExK5t0yz61eaHU08zytnARZKWsFV6rPKv1x3Rycu_4ph7A-PEiEPckgHcU0rKxBPVBZrsBKOFPckDDvgF-fCJLP-wuahvzkxr6BqB4ROI4sTgp7jwpZ519dwcCyDurJRvh1FX6IdjCLmJXvkYVPRVS4RTQx_Qb9QPfMIIeEHo4kyf4XBd15zggbQZnOzfdMQIlnN-NYPbJ2JlZ7KojfdQaAQ9nG-hjITdmnr2USj4_BwGBSOgOufsILb5gyIROp-0W00]--></g></svg>